<svg width="20" height="11" viewBox="0 0 20 11" fill="none" xmlns="http://www.w3.org/2000/svg">
<path d="M18.2779 8.7409C17.7102 8.05995 17.0421 7.47879 16.41 6.86167C15.8397 6.30541 15.8037 5.98272 16.2622 5.34069C16.7625 4.63998 17.3006 3.96615 17.8055 3.2686C18.2767 2.6167 18.7585 1.96657 19.0065 1.18603C19.1638 0.689447 19.0247 0.470104 18.5154 0.383158C18.4277 0.367942 18.337 0.367152 18.2477 0.367152L15.2265 0.363595C14.8544 0.358062 14.6487 0.520296 14.5171 0.850101C14.3394 1.2959 14.1563 1.7413 13.9446 2.17149C13.4644 3.14687 12.9281 4.08965 12.1763 4.88798C12.0105 5.06405 11.8271 5.28655 11.55 5.19486C11.2034 5.06839 11.1013 4.49731 11.107 4.30425L11.104 0.8171C11.0369 0.318936 10.9264 0.0968269 10.4318 0L7.29341 0.000592869C6.87449 0.000592869 6.66444 0.162432 6.44075 0.424457C6.31171 0.575823 6.27278 0.674034 6.53797 0.724225C7.05886 0.823028 7.3523 1.16014 7.43016 1.68242C7.55505 2.51691 7.54635 3.35476 7.47442 4.1926C7.45328 4.43724 7.41119 4.68128 7.31416 4.90972C7.1624 5.26877 6.91737 5.34188 6.59547 5.12096C6.304 4.92098 6.09928 4.6388 5.89891 4.35543C5.14623 3.29192 4.54571 2.14501 4.05604 0.939814C3.91455 0.591632 3.67051 0.380589 3.30158 0.374858C2.39516 0.360433 1.48855 0.358062 0.582128 0.375649C0.0367356 0.385924 -0.125894 0.650716 0.0962149 1.14513C1.08345 3.34112 2.18234 5.47605 3.61676 7.42089C4.35324 8.419 5.19879 9.30012 6.29116 9.92456C7.52916 10.6324 8.86181 10.8454 10.2654 10.7798C10.9226 10.749 11.1201 10.578 11.1505 9.92298C11.171 9.47481 11.2218 9.02921 11.4429 8.62648C11.6599 8.23127 11.9885 8.15599 12.3673 8.40181C12.5568 8.52492 12.7165 8.68162 12.8673 8.84682C13.2372 9.25151 13.5939 9.66846 13.9778 10.0595C14.4594 10.5496 15.0299 10.8391 15.7472 10.78L18.5239 10.7806C18.9713 10.7513 19.2033 10.2028 18.9464 9.70344C18.766 9.35368 18.5293 9.04225 18.2779 8.7409Z" fill="white"/>
</svg>
